<mxfile host="app.diagrams.net" modified="2022-11-12T13:00:22.670Z" agent="5.0 (Macintosh; Intel Mac OS X 10_15_7) AppleWebKit/537.36 (KHTML, like Gecko) Chrome/107.0.0.0 Safari/537.36" etag="MjofpIYQE92MoHFZWqvq" version="20.5.3" type="github">
  <diagram id="jYk2K5DMj2_LdDPxIkrC" name="第 1 页">
    <mxGraphModel dx="1426" dy="1853" grid="1" gridSize="10" guides="1" tooltips="1" connect="1" arrows="1" fold="1" page="1" pageScale="1" pageWidth="827" pageHeight="1169" math="0" shadow="0">
      <root>
        <mxCell id="0" />
        <mxCell id="1" parent="0" />
        <mxCell id="t7gWUmIYwWrbOjvqAih0-2" value="角色(role)" style="ellipse;whiteSpace=wrap;html=1;sketch=1;rounded=1;fillColor=#ffe6cc;strokeColor=#d79b00;" vertex="1" parent="1">
          <mxGeometry x="370" y="220" width="66" height="40" as="geometry" />
        </mxCell>
        <mxCell id="t7gWUmIYwWrbOjvqAih0-24" style="edgeStyle=orthogonalEdgeStyle;curved=1;rounded=0;sketch=1;hachureGap=4;jiggle=2;orthogonalLoop=1;jettySize=auto;html=1;entryX=0;entryY=0.5;entryDx=0;entryDy=0;strokeColor=#006658;fontFamily=Helvetica;fontSource=https%3A%2F%2Ffonts.googleapis.com%2Fcss%3Ffamily%3DArchitects%2BDaughter;fontSize=12;fontColor=#5C5C5C;fillColor=#21C0A5;" edge="1" parent="1" source="t7gWUmIYwWrbOjvqAih0-3" target="t7gWUmIYwWrbOjvqAih0-12">
          <mxGeometry relative="1" as="geometry" />
        </mxCell>
        <mxCell id="t7gWUmIYwWrbOjvqAih0-25" style="edgeStyle=orthogonalEdgeStyle;curved=1;rounded=0;sketch=1;hachureGap=4;jiggle=2;orthogonalLoop=1;jettySize=auto;html=1;entryX=0;entryY=0.5;entryDx=0;entryDy=0;strokeColor=#006658;fontFamily=Helvetica;fontSource=https%3A%2F%2Ffonts.googleapis.com%2Fcss%3Ffamily%3DArchitects%2BDaughter;fontSize=12;fontColor=#5C5C5C;fillColor=#21C0A5;" edge="1" parent="1" source="t7gWUmIYwWrbOjvqAih0-3" target="t7gWUmIYwWrbOjvqAih0-15">
          <mxGeometry relative="1" as="geometry" />
        </mxCell>
        <mxCell id="t7gWUmIYwWrbOjvqAih0-27" style="edgeStyle=orthogonalEdgeStyle;curved=1;rounded=0;sketch=1;hachureGap=4;jiggle=2;orthogonalLoop=1;jettySize=auto;html=1;entryX=0.5;entryY=0;entryDx=0;entryDy=0;strokeColor=#006658;fontFamily=Helvetica;fontSource=https%3A%2F%2Ffonts.googleapis.com%2Fcss%3Ffamily%3DArchitects%2BDaughter;fontSize=12;fontColor=#5C5C5C;fillColor=#21C0A5;" edge="1" parent="1" source="t7gWUmIYwWrbOjvqAih0-3" target="t7gWUmIYwWrbOjvqAih0-2">
          <mxGeometry relative="1" as="geometry" />
        </mxCell>
        <mxCell id="t7gWUmIYwWrbOjvqAih0-28" style="edgeStyle=orthogonalEdgeStyle;curved=1;rounded=0;sketch=1;hachureGap=4;jiggle=2;orthogonalLoop=1;jettySize=auto;html=1;entryX=0.379;entryY=0.025;entryDx=0;entryDy=0;entryPerimeter=0;strokeColor=#006658;fontFamily=Helvetica;fontSource=https%3A%2F%2Ffonts.googleapis.com%2Fcss%3Ffamily%3DArchitects%2BDaughter;fontSize=12;fontColor=#5C5C5C;fillColor=#21C0A5;" edge="1" parent="1" source="t7gWUmIYwWrbOjvqAih0-3" target="t7gWUmIYwWrbOjvqAih0-4">
          <mxGeometry relative="1" as="geometry" />
        </mxCell>
        <mxCell id="t7gWUmIYwWrbOjvqAih0-3" value="角色组(role)" style="ellipse;whiteSpace=wrap;html=1;sketch=1;rounded=1;fillColor=#ffe6cc;strokeColor=#d79b00;" vertex="1" parent="1">
          <mxGeometry x="400" y="110" width="76" height="60" as="geometry" />
        </mxCell>
        <mxCell id="t7gWUmIYwWrbOjvqAih0-4" value="角色(role)" style="ellipse;whiteSpace=wrap;html=1;sketch=1;rounded=1;fillColor=#ffe6cc;strokeColor=#d79b00;" vertex="1" parent="1">
          <mxGeometry x="450" y="220" width="66" height="40" as="geometry" />
        </mxCell>
        <mxCell id="t7gWUmIYwWrbOjvqAih0-10" style="edgeStyle=orthogonalEdgeStyle;rounded=0;sketch=1;hachureGap=4;jiggle=2;orthogonalLoop=1;jettySize=auto;html=1;strokeColor=#006658;fontFamily=Architects Daughter;fontSource=https%3A%2F%2Ffonts.googleapis.com%2Fcss%3Ffamily%3DArchitects%2BDaughter;fontSize=16;fontColor=#5C5C5C;fillColor=#21C0A5;curved=1;" edge="1" parent="1" source="t7gWUmIYwWrbOjvqAih0-7" target="t7gWUmIYwWrbOjvqAih0-8">
          <mxGeometry relative="1" as="geometry" />
        </mxCell>
        <mxCell id="t7gWUmIYwWrbOjvqAih0-11" style="edgeStyle=orthogonalEdgeStyle;rounded=0;sketch=1;hachureGap=4;jiggle=2;orthogonalLoop=1;jettySize=auto;html=1;entryX=1;entryY=0.5;entryDx=0;entryDy=0;strokeColor=#006658;fontFamily=Architects Daughter;fontSource=https%3A%2F%2Ffonts.googleapis.com%2Fcss%3Ffamily%3DArchitects%2BDaughter;fontSize=16;fontColor=#5C5C5C;fillColor=#21C0A5;curved=1;" edge="1" parent="1" source="t7gWUmIYwWrbOjvqAih0-7" target="t7gWUmIYwWrbOjvqAih0-9">
          <mxGeometry relative="1" as="geometry" />
        </mxCell>
        <mxCell id="t7gWUmIYwWrbOjvqAih0-26" style="edgeStyle=orthogonalEdgeStyle;curved=1;rounded=0;sketch=1;hachureGap=4;jiggle=2;orthogonalLoop=1;jettySize=auto;html=1;strokeColor=#006658;fontFamily=Helvetica;fontSource=https%3A%2F%2Ffonts.googleapis.com%2Fcss%3Ffamily%3DArchitects%2BDaughter;fontSize=12;fontColor=#5C5C5C;fillColor=#21C0A5;" edge="1" parent="1" source="t7gWUmIYwWrbOjvqAih0-7" target="t7gWUmIYwWrbOjvqAih0-3">
          <mxGeometry relative="1" as="geometry" />
        </mxCell>
        <mxCell id="t7gWUmIYwWrbOjvqAih0-7" value="用户组" style="ellipse;whiteSpace=wrap;html=1;sketch=1;rounded=1;fillColor=#21C0A5;strokeColor=#006658;fontColor=#5C5C5C;" vertex="1" parent="1">
          <mxGeometry x="260" y="110" width="76" height="60" as="geometry" />
        </mxCell>
        <mxCell id="t7gWUmIYwWrbOjvqAih0-8" value="用户" style="ellipse;whiteSpace=wrap;html=1;sketch=1;rounded=1;fillColor=#21C0A5;strokeColor=#006658;fontColor=#5C5C5C;" vertex="1" parent="1">
          <mxGeometry x="130" y="80" width="66" height="40" as="geometry" />
        </mxCell>
        <mxCell id="t7gWUmIYwWrbOjvqAih0-9" value="用户" style="ellipse;whiteSpace=wrap;html=1;sketch=1;rounded=1;fillColor=#21C0A5;strokeColor=#006658;fontColor=#5C5C5C;" vertex="1" parent="1">
          <mxGeometry x="130" y="160" width="66" height="40" as="geometry" />
        </mxCell>
        <mxCell id="t7gWUmIYwWrbOjvqAih0-21" style="edgeStyle=orthogonalEdgeStyle;curved=1;rounded=0;sketch=1;hachureGap=4;jiggle=2;orthogonalLoop=1;jettySize=auto;html=1;strokeColor=#006658;fontFamily=Helvetica;fontSource=https%3A%2F%2Ffonts.googleapis.com%2Fcss%3Ffamily%3DArchitects%2BDaughter;fontSize=12;fontColor=#5C5C5C;fillColor=#21C0A5;" edge="1" parent="1" source="t7gWUmIYwWrbOjvqAih0-12" target="t7gWUmIYwWrbOjvqAih0-13">
          <mxGeometry relative="1" as="geometry" />
        </mxCell>
        <mxCell id="t7gWUmIYwWrbOjvqAih0-22" style="edgeStyle=orthogonalEdgeStyle;curved=1;rounded=0;sketch=1;hachureGap=4;jiggle=2;orthogonalLoop=1;jettySize=auto;html=1;strokeColor=#006658;fontFamily=Helvetica;fontSource=https%3A%2F%2Ffonts.googleapis.com%2Fcss%3Ffamily%3DArchitects%2BDaughter;fontSize=12;fontColor=#5C5C5C;fillColor=#21C0A5;" edge="1" parent="1" source="t7gWUmIYwWrbOjvqAih0-12" target="t7gWUmIYwWrbOjvqAih0-14">
          <mxGeometry relative="1" as="geometry" />
        </mxCell>
        <mxCell id="t7gWUmIYwWrbOjvqAih0-12" value="功能权限" style="ellipse;whiteSpace=wrap;html=1;sketch=1;rounded=1;fillColor=#d5e8d4;strokeColor=#82b366;" vertex="1" parent="1">
          <mxGeometry x="590" y="10" width="76" height="60" as="geometry" />
        </mxCell>
        <mxCell id="t7gWUmIYwWrbOjvqAih0-13" value="目录" style="ellipse;whiteSpace=wrap;html=1;sketch=1;rounded=1;fillColor=#d5e8d4;strokeColor=#82b366;" vertex="1" parent="1">
          <mxGeometry x="690" y="-30" width="66" height="40" as="geometry" />
        </mxCell>
        <mxCell id="t7gWUmIYwWrbOjvqAih0-14" value="按钮" style="ellipse;whiteSpace=wrap;html=1;sketch=1;rounded=1;fillColor=#d5e8d4;strokeColor=#82b366;" vertex="1" parent="1">
          <mxGeometry x="690" y="50" width="66" height="40" as="geometry" />
        </mxCell>
        <mxCell id="t7gWUmIYwWrbOjvqAih0-19" style="edgeStyle=orthogonalEdgeStyle;curved=1;rounded=0;sketch=1;hachureGap=4;jiggle=2;orthogonalLoop=1;jettySize=auto;html=1;strokeColor=#006658;fontFamily=Helvetica;fontSource=https%3A%2F%2Ffonts.googleapis.com%2Fcss%3Ffamily%3DArchitects%2BDaughter;fontSize=12;fontColor=#5C5C5C;fillColor=#21C0A5;" edge="1" parent="1" source="t7gWUmIYwWrbOjvqAih0-15" target="t7gWUmIYwWrbOjvqAih0-17">
          <mxGeometry relative="1" as="geometry" />
        </mxCell>
        <mxCell id="t7gWUmIYwWrbOjvqAih0-20" style="edgeStyle=orthogonalEdgeStyle;curved=1;rounded=0;sketch=1;hachureGap=4;jiggle=2;orthogonalLoop=1;jettySize=auto;html=1;strokeColor=#006658;fontFamily=Helvetica;fontSource=https%3A%2F%2Ffonts.googleapis.com%2Fcss%3Ffamily%3DArchitects%2BDaughter;fontSize=12;fontColor=#5C5C5C;fillColor=#21C0A5;" edge="1" parent="1" source="t7gWUmIYwWrbOjvqAih0-15" target="t7gWUmIYwWrbOjvqAih0-18">
          <mxGeometry relative="1" as="geometry" />
        </mxCell>
        <mxCell id="t7gWUmIYwWrbOjvqAih0-15" value="数据权限" style="ellipse;whiteSpace=wrap;html=1;sketch=1;rounded=1;fillColor=#f8cecc;strokeColor=#b85450;" vertex="1" parent="1">
          <mxGeometry x="590" y="180" width="76" height="60" as="geometry" />
        </mxCell>
        <mxCell id="t7gWUmIYwWrbOjvqAih0-17" value="订单" style="ellipse;whiteSpace=wrap;html=1;sketch=1;rounded=1;fillColor=#f8cecc;strokeColor=#b85450;" vertex="1" parent="1">
          <mxGeometry x="690" y="160" width="66" height="40" as="geometry" />
        </mxCell>
        <mxCell id="t7gWUmIYwWrbOjvqAih0-18" value="商品" style="ellipse;whiteSpace=wrap;html=1;sketch=1;rounded=1;fillColor=#f8cecc;strokeColor=#b85450;" vertex="1" parent="1">
          <mxGeometry x="690" y="230" width="66" height="40" as="geometry" />
        </mxCell>
      </root>
    </mxGraphModel>
  </diagram>
</mxfile>
